<svg xmlns="http://www.w3.org/2000/svg" width="17.152" height="18.455" viewBox="0 0 17.152 18.455"><defs><style>.a{fill:#fff;}</style></defs><path class="a" d="M8.7,17.355a.839.839,0,0,0-.991-.825c-1.1.2-2.484.232-2.852-.8A4.787,4.787,0,0,0,3.312,13.7a1.007,1.007,0,0,1-.14-.092.839.839,0,0,0-.78-.541h0a.838.838,0,0,0-.839.835c0,.684.68,1.122.957,1.27a3.724,3.724,0,0,1,.775,1.14c.305.858,1.193,2.16,3.745,1.993,0,.029,0,.057,0,.083l0,.224a.839.839,0,1,0,1.677,0l0-.267C8.7,18.187,8.7,17.957,8.7,17.355ZM17.641,4.67c.027-.1.053-.221.076-.352a5.265,5.265,0,0,0-.342-2.762.84.84,0,0,0-.516-.486c-.3-.1-1.4-.3-3.509,1.048a11.631,11.631,0,0,0-5.329,0C5.921.791,4.824.971,4.529,1.066A.836.836,0,0,0,4,1.556,5.284,5.284,0,0,0,3.661,4.37c.02.107.043.206.066.3A5.258,5.258,0,0,0,2.674,7.879a7.063,7.063,0,0,0,.036.773,5.476,5.476,0,0,0,4.549,5.417c-.036.1-.07.217-.1.336a.839.839,0,1,0,1.629.4,1.408,1.408,0,0,1,.392-.736.838.838,0,0,0-.458-1.464C5.826,12.275,4.568,11.1,4.379,8.5a5.544,5.544,0,0,1-.028-.619A3.571,3.571,0,0,1,5.122,5.6a2.534,2.534,0,0,1,.164-.194.839.839,0,0,0,.158-.859,2.841,2.841,0,0,1-.13-.466A3.433,3.433,0,0,1,5.38,2.73,6.325,6.325,0,0,1,7.4,3.719a.846.846,0,0,0,.694.111,9.877,9.877,0,0,1,5.177,0,.843.843,0,0,0,.7-.115,6.35,6.35,0,0,1,2.017-1,3.388,3.388,0,0,1,.073,1.323,2.688,2.688,0,0,1-.142.509.839.839,0,0,0,.158.859c.065.073.129.152.188.225a3.457,3.457,0,0,1,.756,2.244,5.9,5.9,0,0,1-.032.652c-.185,2.563-1.447,3.744-4.357,4.075a.839.839,0,0,0-.457,1.464,1.368,1.368,0,0,1,.391.762,2.567,2.567,0,0,1,.077.687v1.957c-.008.543-.008.95-.008,1.137a.839.839,0,1,0,1.677,0c0-.182,0-.581.008-1.124v-1.97a4.094,4.094,0,0,0-.13-1.1,3.57,3.57,0,0,0-.1-.349,5.462,5.462,0,0,0,4.567-5.387,7.293,7.293,0,0,0,.039-.8A5.141,5.141,0,0,0,17.641,4.67Z" transform="translate(-1.549 -0.997)"/></svg>